<?xml version="1.0" encoding="utf-8"?>
<!DOCTYPE svg PUBLIC "-//W3C//DTD SVG 20010904//EN" "http://www.w3.org/TR/2001/REC-SVG-20010904/DTD/svg10.dtd">
<svg version="1.0" xmlns="http://www.w3.org/2000/svg" width="1600px" height="1600px" viewBox="0 0 1600 1600" preserveAspectRatio="xMidYMid meet">
 <g fill="#000000">
  <path d="M435 1568.5 c-14.1 -3.1 -28.8 -9.9 -40 -18.4 -10.3 -7.9 -367 -365.4 -372 -372.9 -23.3 -35 -23.4 -76.5 -0.3 -111.5 3.7 -5.6 91.8 -94.5 397.2 -400.5 418.3 -419.3 398 -399.3 415.4 -407.2 12.8 -5.8 23 -8.2 37.4 -8.7 22.9 -0.9 40.2 4.2 59.8 17.8 9.3 6.4 371.6 368.9 376.7 376.9 23.4 36.4 22.1 82.4 -3.1 115.7 -6.9 9.1 -783.6 784 -792.7 790.9 -8.3 6.2 -21.5 12.9 -32 16 -7.6 2.3 -11.1 2.7 -24.4 3 -11 0.3 -17.4 -0.1 -22 -1.1z m37.8 -176.1 c18.3 -3.8 32.5 -11.5 46.2 -25.3 13 -13.1 20.3 -26 24.7 -43.7 2.6 -10.4 2.3 -32.3 -0.6 -42.9 -8.6 -32 -32.5 -56.4 -64.3 -65.6 -10.5 -3 -30.6 -3.7 -41.9 -1.4 -17.4 3.5 -32.9 11.6 -45.7 23.9 -12 11.5 -20.8 26.6 -25.3 43.6 -3.2 11.8 -3.2 32.8 0 44.5 4 14.9 11.8 29 22 39.9 13.3 14 29.3 23 48.1 27 9 2 27.3 2 36.8 0z m-177.1 -183 c33.4 -8.3 59.3 -35.6 66.4 -69.9 9.8 -47.3 -19.2 -93.8 -66.6 -106.8 -6.7 -1.9 -10.5 -2.2 -23.5 -2.1 -13.9 0.1 -16.5 0.4 -24.5 2.8 -36 10.9 -61.1 40.6 -65.5 77.5 -2.6 21.8 3.6 45.5 16.4 63.6 6.4 8.9 19.2 20.4 28.8 25.9 20.9 11.8 44.8 15 68.5 9z m350 2.5 c21.2 -2.3 38.5 -10.3 53.7 -24.8 12.7 -12.2 21.5 -27.5 25.8 -44.7 2.9 -12.2 2.9 -31.5 0 -42.6 -8.9 -33.3 -31.3 -56.5 -63.9 -66.5 -7.9 -2.4 -10.5 -2.6 -24.3 -2.7 -12.1 0 -17 0.4 -22.4 1.8 -27.5 7.4 -48.6 24.6 -60.6 49.7 -6.5 13.6 -8.3 22 -8.4 38.9 -0.1 12.1 0.3 15.9 2.2 22.8 7.4 27.5 24.9 48.2 50.6 60.2 11.4 5.4 17.6 6.9 36.4 8.9 0.7 0 5.6 -0.4 10.9 -1z m-179.7 -182 c54.2 -6.7 90.5 -60.1 77 -113 -8.2 -32.1 -33.2 -57.2 -65.5 -66 -11.8 -3.2 -33.7 -3.3 -45.4 -0.1 -52.3 14.2 -80.9 66.9 -64 117.7 12.2 36.5 46 61.3 84.9 62.4 2.5 0 8.4 -0.4 13 -1z m418.5 -62.4 c68.5 -10.8 128.5 -49 166 -105.4 21.8 -32.9 35.4 -70.7 39.6 -109.9 1.7 -16.5 0.7 -49.3 -2.1 -65.1 -12 -68.1 -49.5 -125.4 -107 -163.4 -19.3 -12.8 -49 -25.9 -71.9 -31.7 -74.7 -19 -153.5 -1.7 -213.6 46.7 -37.1 29.9 -65 71.3 -79.4 117.8 -7.7 24.9 -10.5 46.5 -9.8 76.5 0.5 24.4 2.2 37 7.7 57.5 21.7 81.4 85.6 146.6 166.7 169.9 13.6 3.9 29.5 7.1 42.3 8.5 12.3 1.4 49.5 0.5 61.5 -1.4z"/>
  <path d="M832.5 847 c-60.1 -8.6 -104.5 -59.3 -104.5 -119.5 0 -33.7 11.9 -61.9 36.4 -86 16.4 -16.1 32.2 -25.3 54.3 -31.2 9.1 -2.5 11.3 -2.7 29.8 -2.7 18.5 0 20.7 0.2 29.8 2.7 22 5.9 37.8 15 54.3 31.2 11.7 11.5 19.9 22.7 25.2 34.6 21.3 47.5 11.8 100.4 -24.2 136.4 -22.6 22.5 -49.3 34.1 -81.1 35 -7.7 0.2 -16.7 0 -20 -0.5z"/>
  <path d="M1325 505.3 c-15 -2.5 -28.4 -12.5 -35.3 -26.2 -3.7 -7.3 -6.3 -19 -5.4 -24.4 1.6 -10.7 -8.9 -42.6 -21.3 -64.7 -14.5 -25.5 -37.3 -50.5 -62.8 -68.6 -26 -18.4 -61.4 -31.4 -81.1 -29.8 -33.3 2.8 -59.9 -28.2 -51.6 -60.1 2.3 -8.6 6.2 -15.2 13.2 -22.3 7.9 -8 16.4 -12.2 27.2 -13.2 10.4 -1.1 35.4 0.5 48.2 3 35.2 6.8 76.1 26.4 110.2 52.7 55.6 43 97.8 106.7 110.3 166.6 3 14.5 4.4 41 2.6 49.4 -5.3 24.3 -30.2 41.6 -54.2 37.6z"/>
  <path d="M1503.3 471.5 c-8.1 -2.2 -15.2 -6.2 -21.5 -12.3 -11 -10.5 -14.4 -19.1 -15.7 -40.1 -4.7 -73.2 -52.9 -158 -126.8 -223.1 -13.1 -11.5 -30.9 -25.4 -43.4 -33.8 -49.1 -32.9 -105.9 -53.2 -149 -53.2 -12.5 0 -24.2 -5.3 -33.7 -15.4 -18.2 -19.3 -17.5 -49.6 1.7 -67.9 15.5 -14.8 31.5 -16.9 74.9 -9.6 79.1 13.2 156.3 54.6 227.1 121.6 65.6 62.3 113 136 133.6 207.8 9.4 32.7 15.2 73 12.6 87 -5.2 27.7 -33.4 46.1 -59.8 39z"/>
 </g>
</svg>