<?xml version="1.0" encoding="utf-8"?>
<!DOCTYPE svg PUBLIC "-//W3C//DTD SVG 20010904//EN" "http://www.w3.org/TR/2001/REC-SVG-20010904/DTD/svg10.dtd">
<svg version="1.0" xmlns="http://www.w3.org/2000/svg" width="512px" height="512px" viewBox="0 0 512 512" preserveAspectRatio="xMidYMid meet">
 <g fill="#000000">
  <path d="M241.5 507.4 c-102.7 -39.2 -162.3 -102.6 -186.5 -198.3 -10.9 -43.4 -14.2 -87.1 -13.1 -175.1 0.6 -43.6 0.7 -45.7 2.7 -49.5 2.4 -4.6 7.2 -8.3 11.8 -8.9 1.7 -0.2 11.9 -0.9 22.6 -1.5 10.7 -0.6 24.2 -1.8 30 -2.7 49.3 -7.3 90.1 -26.1 126.6 -58.4 5.9 -5.2 11.6 -10 12.8 -10.7 2.7 -1.6 12.5 -1.6 15.2 0 1.2 0.7 6.9 5.5 12.8 10.7 36.5 32.3 77.3 51.1 126.6 58.4 5.8 0.9 19.3 2.1 30 2.7 10.7 0.6 20.9 1.3 22.6 1.5 4.6 0.6 9.4 4.3 11.8 8.9 2 3.8 2.1 5.9 2.7 49.5 0.9 73.7 -0.8 108.1 -7.1 145.7 -11.8 69.5 -37 119 -83 162.9 -25.6 24.4 -67.4 49.1 -109.1 64.5 -13.3 4.9 -17.2 4.9 -29.4 0.3z m27.2 -36.8 c69.7 -28.1 116.2 -70.4 141.2 -128.8 20.2 -47 27 -98.9 25.5 -192.4 l-0.7 -40.2 -11.1 -0.6 c-29.3 -1.8 -61.4 -8.5 -86.8 -18.2 -23.4 -8.8 -53 -26 -72.3 -41.8 -4.4 -3.6 -8.2 -6.6 -8.5 -6.6 -0.3 0 -4.1 3 -8.5 6.6 -25.6 21.1 -60.6 39.4 -93 48.7 -19.6 5.6 -45.1 10 -66.1 11.3 l-11.1 0.6 -0.7 40.2 c-1.1 67.3 1.8 107.3 10.4 145.7 15.8 70 54 121.3 116.7 156.8 15.6 8.8 47.4 22.9 52 23 1.1 0.1 7 -1.9 13 -4.3z"/>
  <path d="M224.5 321.6 c-1.6 -0.8 -15.4 -13.9 -30.7 -29.2 -30.4 -30.7 -31.4 -32.1 -28.9 -40.4 3.5 -11.9 16 -16.7 26.2 -10.1 2.4 1.6 12.5 11 22.4 21 l18 18.1 45.5 -45.4 c39.9 -39.8 46 -45.5 49.3 -46.1 13.3 -2.5 24.4 9.2 20.7 21.8 -1 3.6 -8.7 11.7 -52.8 56 -34.2 34.2 -53.1 52.4 -55.8 53.7 -4.7 2.3 -9.6 2.5 -13.9 0.6z"/>
 </g>
</svg>