<?xml version="1.0" encoding="utf-8"?>
<!DOCTYPE svg PUBLIC "-//W3C//DTD SVG 20010904//EN" "http://www.w3.org/TR/2001/REC-SVG-20010904/DTD/svg10.dtd">
<svg version="1.0" xmlns="http://www.w3.org/2000/svg" width="512px" height="512px" viewBox="0 0 512 512" preserveAspectRatio="xMidYMid meet">
 <g fill="#000000">
  <path d="M227.7 489 c-3.7 -2.9 -4.7 -7.6 -4.7 -21.5 0 -13 -1.1 -16.6 -6.3 -20 -1.3 -0.8 -16 -6.9 -32.6 -13.5 -30.7 -12.2 -35.4 -13.4 -40.4 -10.9 -1.2 0.6 -6.7 5.6 -12.2 10.9 -10.5 10.3 -13.7 12 -18.3 10.1 -4.3 -1.8 -38 -36 -39.1 -39.7 -1.3 -4.6 0.6 -7.9 9.9 -16.9 14.9 -14.6 15 -12.7 -3.6 -56.6 -8 -18.9 -15.5 -35.5 -16.7 -36.8 -3.9 -4.2 -7.6 -5.1 -22.3 -5.1 l-13.6 0 -3.4 -3.4 -3.4 -3.4 0 -26.6 0 -26.6 2.9 -3.2 2.9 -3.3 15.4 -0.5 c15.7 -0.5 17.6 -1 21.5 -5.2 2.8 -3 26.3 -62.5 26.3 -66.6 0 -5.5 -2.4 -9.4 -11.5 -18.2 -4.7 -4.7 -9.3 -9.8 -10.2 -11.4 -3 -5.8 -1.7 -7.8 18.5 -27.9 18.6 -18.5 18.9 -18.7 23.1 -18.7 4.1 0 4.8 0.5 13.5 9 8.9 8.7 14.1 12 19 12 1.3 0 18.3 -6.8 37.8 -15.1 27.2 -11.6 36.1 -15.9 38.8 -18.5 l3.5 -3.4 0.5 -14.8 c0.9 -23.2 -0.7 -22.2 34 -22.2 34 0.1 33 -0.6 33 20.2 0 13.5 1.6 19.2 6.2 22.1 5 3.3 62.9 25.7 66.2 25.7 5.9 0 8.8 -1.8 18.6 -11.5 10 -9.8 13.2 -11.5 17.9 -9.6 1.5 0.7 11 9.4 20.9 19.5 18 18 18.2 18.3 18.2 22.5 0 4.1 -0.5 4.9 -8.9 13.5 -9.2 9.3 -11.1 12.4 -11.1 17.9 0 1.9 6 17.4 15.2 39.1 13.3 31.2 15.7 36.2 18.7 38.5 3.3 2.5 4.2 2.6 18.4 3.1 l14.9 0.5 2.9 3.3 2.9 3.2 0 26.5 0 26.5 -2.9 3.2 -2.9 3.3 -14.4 0.5 c-12.5 0.4 -14.7 0.8 -17.9 2.7 -1.9 1.2 -4.1 3.3 -4.7 4.5 -0.7 1.3 -6.6 15.8 -13.2 32.2 -12.3 30.8 -13.6 35.6 -10.9 40.9 0.6 1.2 5.3 6.5 10.5 11.7 9.7 10 11.4 13.2 9.5 17.9 -0.7 1.5 -9.4 11 -19.5 20.9 -17.9 17.9 -18.3 18.2 -22.5 18.2 -4.1 0 -4.8 -0.5 -14 -9.4 -10.6 -10.3 -15.1 -12.5 -21.4 -10.8 -4.3 1.2 -67.6 28.1 -70.4 29.9 -4.7 3.1 -6.3 8.8 -6.3 22.7 0 21.2 1.1 20.5 -33.1 20.6 -25.3 0 -26.8 -0.1 -29.2 -2z m45.6 -157.6 c4 -0.8 11.9 -3.8 17.7 -6.7 9.2 -4.4 11.6 -6.2 19.5 -14.1 9.8 -9.8 15.1 -18.5 19.7 -32.1 2 -6.1 2.3 -8.9 2.3 -22.5 0 -13.6 -0.3 -16.4 -2.3 -22.5 -4.6 -13.6 -9.9 -22.3 -19.7 -32.1 -7.9 -7.9 -10.3 -9.7 -19.5 -14.1 -12.6 -6.2 -21.5 -8.3 -35 -8.3 -13.5 0 -22.4 2.1 -35 8.3 -9.2 4.4 -11.7 6.2 -19.6 14.1 -7.9 7.9 -9.7 10.4 -14.1 19.6 -6.2 12.6 -8.3 21.5 -8.3 35 0 13.5 2.1 22.4 8.3 35 4.4 9.2 6.2 11.6 14.1 19.5 7.5 7.5 10.7 9.9 18.7 13.9 5.2 2.6 12.9 5.6 17 6.6 9.5 2.4 26.5 2.6 36.2 0.4z"/>
 </g>
</svg>